<svg width="36" height="36" viewBox="0 0 36 36" fill="none" xmlns="http://www.w3.org/2000/svg">
  <rect width="36" height="36" rx="9" fill="#0f0f0f"/>
  <g transform="translate(3.2 3.8) scale(0.705)">
    <g fill="#ffffff">
      <rect x="12" y="2" width="8" height="36" rx="1"/>
      <rect x="30" y="2" width="8" height="36" rx="1"/>
      <rect x="12" y="16.4" width="26" height="7.2"/>
    </g>
    <g fill="#0f0f0f" stroke="#0f0f0f" stroke-width="3.2" stroke-linejoin="round">
      <path d="M16.5 15 C13.5 13.5 10.5 11 7.5 10 C5.5 9.4 3.2 10.2 3 12.2 C2.85 13.9 4.3 14.7 5.8 15.1 C8 15.7 9.6 16.8 10.6 18.2 L10.6 27 C10.6 29.4 12 31 14.2 31 L16.5 31 Z"/>
      <rect x="14" y="18.2" width="25" height="5.6" rx="2.8"/>
    </g>
    <g fill="#d9a64e">
      <path d="M16.5 15 C13.5 13.5 10.5 11 7.5 10 C5.5 9.4 3.2 10.2 3 12.2 C2.85 13.9 4.3 14.7 5.8 15.1 C8 15.7 9.6 16.8 10.6 18.2 L10.6 27 C10.6 29.4 12 31 14.2 31 L16.5 31 Z"/>
      <rect x="14" y="18.2" width="25" height="5.6" rx="2.8"/>
    </g>
  </g>
</svg>
