<svg width="36" height="36" viewBox="0 0 36 36" fill="none" xmlns="http://www.w3.org/2000/svg">
  <rect width="36" height="36" rx="9" fill="#121212"/>
  <rect x="8" y="6.5" width="20" height="6" rx="2.4" fill="#ccd1d8"/>
  <rect x="8" y="10.2" width="20" height="2.6" rx="1.3" fill="#a7adb5"/>
  <path d="M8 7 L11.6 9.75 L8 12.5 Z" fill="#121212"/>
  <rect x="15.9" y="12" width="4.2" height="18" rx="2.1" fill="#c88a48"/>
  <rect x="17.4" y="12.5" width="1.2" height="17" rx="0.6" fill="#b17a3c"/>
  <circle cx="13.6" cy="18.4" r="2.6" fill="#F4B400"/>
  <circle cx="16.7" cy="17.9" r="2.75" fill="#F4B400"/>
  <circle cx="19.8" cy="17.9" r="2.75" fill="#F4B400"/>
  <circle cx="22.9" cy="18.4" r="2.6" fill="#F4B400"/>
  <rect x="11" y="18" width="15.2" height="10.6" rx="4.6" fill="#F4B400"/>
  <rect x="23.8" y="18.8" width="4" height="7" rx="2" fill="#F4B400"/>
  <g stroke="#d29a00" stroke-width="1.15" stroke-linecap="round">
    <path d="M12.6 21.6 H22.6"/>
    <path d="M12.6 24.2 H22.6"/>
    <path d="M12.6 26.8 H22.6"/>
    <path d="M24.3 20.2 V25.4"/>
  </g>
</svg>
